<svg viewBox="0 0 48 48" fill="none" xmlns="http://www.w3.org/2000/svg">
  <defs>
    <linearGradient id="brand-grad" x1="0%" y1="0%" x2="100%" y2="100%">
      <stop offset="0%" stopColor="#3B82F6" />
      <stop offset="50%" stopColor="#8B5CF6" />
      <stop offset="100%" stopColor="#2563EB" />
    </linearGradient>
    <linearGradient id="plane-grad" x1="0%" y1="0%" x2="100%" y2="0%">
      <stop offset="0%" stopColor="#FFFFFF" />
      <stop offset="100%" stopColor="#E0E7FF" />
    </linearGradient>
  </defs>
  <!-- Location Pin Base -->
  <path d="M24 4C16.268 4 10 10.268 10 18C10 28 24 42 24 42C24 42 38 28 38 18C38 10.268 31.732 4 24 4Z" fill="url(#brand-grad)"/>
  <!-- Inner Circle -->
  <circle cx="24" cy="18" r="8" fill="white"/>
  <circle cx="24" cy="18" r="5" fill="url(#brand-grad)"/>
  <!-- Airplane Wing -->
  <path d="M32 22L40 18V14L30 19V15L26 17L22 15V19L12 14V18L20 22V26L24 28V32L20 34V38L24 40L28 38V34L24 32V28L28 26V22H32Z" fill="url(#plane-grad)" opacity="0.95"/>
</svg>